<svg width="60" height="60" viewBox="0 0 60 60" fill="none" xmlns="http://www.w3.org/2000/svg">
<path d="M24.6656 42.8875C24.3263 42.8885 23.9903 42.8205 23.6781 42.6875C23.2939 42.5215 22.9575 42.2617 22.6998 41.9319C22.4421 41.6021 22.2713 41.2129 22.2031 40.8L21.7906 38.3C21.0184 37.8911 20.3211 37.3543 19.7281 36.7125C16.7781 33.2875 16.7781 24.2125 19.7281 20.7875C21.5156 18.75 25.3531 17.5 30.0031 17.5C34.6531 17.5 38.4906 18.75 40.2781 20.7875C43.2281 24.2125 43.2281 33.2875 40.2781 36.7125C38.1406 39.2125 33.4406 40 29.7781 39.9875L26.0281 42.4875C25.624 42.7538 25.1495 42.8931 24.6656 42.8875ZM30.0031 20C26.2531 20 22.8781 20.975 21.6156 22.425C19.4781 24.925 19.4781 32.5875 21.6156 35.075C22.0032 35.4765 22.4553 35.8103 22.9531 36.0625C23.2875 36.2504 23.5742 36.5128 23.791 36.8292C24.0077 37.1457 24.1487 37.5078 24.2031 37.8875L24.6156 40.3875L28.3656 37.8875C28.7938 37.6246 29.2883 37.4901 29.7906 37.5C33.6656 37.5 37.1031 36.5625 38.3781 35.0875C40.5281 32.5875 40.5281 24.925 38.3781 22.4375C37.1281 20.975 33.7531 20 30.0031 20Z" fill="#C4C4C4"/>
<path d="M25 30.3125C25.8629 30.3125 26.5625 29.6129 26.5625 28.75C26.5625 27.8871 25.8629 27.1875 25 27.1875C24.1371 27.1875 23.4375 27.8871 23.4375 28.75C23.4375 29.6129 24.1371 30.3125 25 30.3125Z" fill="#C4C4C4"/>
<path d="M30 30.3125C30.8629 30.3125 31.5625 29.6129 31.5625 28.75C31.5625 27.8871 30.8629 27.1875 30 27.1875C29.1371 27.1875 28.4375 27.8871 28.4375 28.75C28.4375 29.6129 29.1371 30.3125 30 30.3125Z" fill="#C4C4C4"/>
<path d="M35 30.3125C35.8629 30.3125 36.5625 29.6129 36.5625 28.75C36.5625 27.8871 35.8629 27.1875 35 27.1875C34.1371 27.1875 33.4375 27.8871 33.4375 28.75C33.4375 29.6129 34.1371 30.3125 35 30.3125Z" fill="#C4C4C4"/>
</svg>
