<svg width="60" height="60" viewBox="0 0 60 60" fill="none" xmlns="http://www.w3.org/2000/svg">
<path d="M30 42.5C32.4723 42.5 34.889 41.7669 36.9446 40.3934C39.0002 39.0199 40.6024 37.0676 41.5485 34.7835C42.4946 32.4995 42.7421 29.9861 42.2598 27.5614C41.7775 25.1366 40.587 22.9093 38.8388 21.1612C37.0907 19.413 34.8634 18.2225 32.4386 17.7402C30.0139 17.2579 27.5005 17.5054 25.2165 18.4515C22.9324 19.3976 20.9801 20.9998 19.6066 23.0554C18.2331 25.111 17.5 27.5277 17.5 30C17.5 33.3152 18.817 36.4946 21.1612 38.8388C22.3219 39.9996 23.6999 40.9203 25.2165 41.5485C26.733 42.1767 28.3585 42.5 30 42.5ZM30 20C31.9778 20 33.9112 20.5865 35.5557 21.6853C37.2002 22.7841 38.4819 24.3459 39.2388 26.1732C39.9957 28.0004 40.1937 30.0111 39.8079 31.9509C39.422 33.8907 38.4696 35.6725 37.0711 37.0711C35.6725 38.4696 33.8907 39.422 31.9509 39.8079C30.0111 40.1937 28.0004 39.9957 26.1732 39.2388C24.3459 38.4819 22.7841 37.2002 21.6853 35.5557C20.5865 33.9112 20 31.9778 20 30C20 27.3478 21.0536 24.8043 22.9289 22.9289C24.8043 21.0536 27.3478 20 30 20Z" fill="#C4C4C4"/>
<path d="M25.9394 35.9367C26.1259 35.933 26.311 35.9036 26.4894 35.8492L32.0644 34.1367C32.5553 33.9902 33.002 33.7237 33.3642 33.3615C33.7265 32.9993 33.9929 32.5526 34.1394 32.0617L35.8519 26.4867C35.9548 26.1616 35.9664 25.8144 35.8855 25.4832C35.8046 25.1519 35.6343 24.8492 35.3932 24.608C35.152 24.3669 34.8493 24.1966 34.518 24.1157C34.1867 24.0348 33.8396 24.0464 33.5144 24.1492L27.9394 25.8617C27.4486 26.0083 27.0019 26.2747 26.6397 26.637C26.2774 26.9992 26.011 27.4459 25.8644 27.9367L24.1519 33.5117C24.0531 33.8369 24.0438 34.1828 24.1252 34.5129C24.2066 34.8429 24.3757 35.1448 24.6144 35.3867C24.968 35.735 25.4431 35.9323 25.9394 35.9367ZM28.2519 28.6617C28.282 28.5646 28.3352 28.4763 28.4071 28.4044C28.479 28.3325 28.5673 28.2793 28.6644 28.2492L33.1144 26.8867L31.7519 31.3367C31.7219 31.4338 31.6687 31.5222 31.5968 31.5941C31.5249 31.6659 31.4366 31.7192 31.3394 31.7492L26.8894 33.1117L28.2519 28.6617Z" fill="#C4C4C4"/>
</svg>
