<svg width="60" height="60" viewBox="0 0 60 60" fill="none" xmlns="http://www.w3.org/2000/svg">
<path d="M37.6842 41.7167H34.2987C33.6311 41.7167 32.9908 41.4515 32.5188 40.9794C32.0467 40.5074 31.7816 39.8671 31.7816 39.1996V36.1413C31.7816 35.8075 31.649 35.4874 31.4129 35.2514C31.1769 35.0153 30.8568 34.8827 30.523 34.8827C30.1892 34.8827 29.8691 35.0153 29.6331 35.2514C29.397 35.4874 29.2645 35.8075 29.2645 36.1413V39.1996C29.2645 39.8671 28.9993 40.5074 28.5272 40.9794C28.0552 41.4515 27.4149 41.7167 26.7473 41.7167H23.3618C22.6943 41.7167 22.054 41.4515 21.582 40.9794C21.1099 40.5074 20.8447 39.8671 20.8447 39.1996V32.1013H20.4546C19.9545 32.1047 19.4654 31.9544 19.0535 31.6708C18.6416 31.3872 18.3267 30.9839 18.1514 30.5156C17.9823 30.0502 17.9541 29.5452 18.0705 29.0639C18.187 28.5826 18.4427 28.1463 18.8059 27.8097L28.8743 18.6097C29.3311 18.2163 29.9139 18 30.5167 18C31.1195 18 31.7023 18.2163 32.1591 18.6097L42.2905 27.8348C42.6281 28.1833 42.8579 28.6219 42.9521 29.0979C43.0463 29.5739 43.0009 30.067 42.8214 30.5178C42.6419 30.9686 42.3359 31.3579 41.9402 31.6389C41.5446 31.9198 41.0762 32.0804 40.5914 32.1013H40.1509V39.1996C40.151 39.8585 39.8928 40.4912 39.4316 40.9619C38.9703 41.4325 38.343 41.7035 37.6842 41.7167ZM30.523 32.3656C31.5244 32.3656 32.4847 32.7634 33.1928 33.4715C33.9009 34.1796 34.2987 35.1399 34.2987 36.1413V39.1996H37.6842V30.8428C37.6842 30.509 37.8168 30.1889 38.0528 29.9529C38.2888 29.7168 38.6089 29.5842 38.9427 29.5842H40.5914L30.523 20.4723L20.4546 29.6849L22.1159 29.5842C22.4497 29.5842 22.7698 29.7168 23.0058 29.9529C23.2418 30.1889 23.3744 30.509 23.3744 30.8428V39.1996H26.7473V36.1413C26.7473 35.1399 27.1451 34.1796 27.8532 33.4715C28.5613 32.7634 29.5216 32.3656 30.523 32.3656Z" fill="#C4C4C4"/>
</svg>
